<mxfile host="65bd71144e">
    <diagram id="your-diagram-id" name="Page-1">
        <mxGraphModel dx="1782" dy="809" grid="1" gridSize="10" guides="1" tooltips="1" connect="1" arrows="1" fold="1" page="1" pageScale="1" pageWidth="827" pageHeight="1169" math="0" shadow="0">
            <root>
                <mxCell id="0"/>
                <mxCell id="1" parent="0"/>
                <mxCell id="200" value="" style="rounded=1;dashed=1;strokeColor=#ff9900;strokeWidth=2;fillColor=none;html=1;" parent="1" vertex="1">
                    <mxGeometry x="-380" y="380" width="880" height="690" as="geometry"/>
                </mxCell>
                <mxCell id="201" value="S3: Unprocessed (Zipped) OpenFoodFacts JSON" style="shape=datastore;whiteSpace=wrap;html=1;fillColor=#dae8fc;strokeColor=#6c8ebf;" parent="200" vertex="1">
                    <mxGeometry x="100.57142857142858" y="1166.7272727272727" width="226.2857142857143" height="112.9090909090909" as="geometry"/>
                </mxCell>
                <mxCell id="_2Xd_gbtaXNUsb9bYV4X-220" style="edgeStyle=none;html=1;" parent="200" source="_2Xd_gbtaXNUsb9bYV4X-211" target="_2Xd_gbtaXNUsb9bYV4X-217" edge="1">
                    <mxGeometry relative="1" as="geometry"/>
                </mxCell>
                <mxCell id="_2Xd_gbtaXNUsb9bYV4X-211" value="" style="sketch=0;outlineConnect=0;fontColor=#232F3E;gradientColor=none;strokeColor=#ffffff;fillColor=#232F3E;dashed=0;verticalLabelPosition=middle;verticalAlign=bottom;align=center;html=1;whiteSpace=wrap;fontSize=10;fontStyle=1;spacing=3;shape=mxgraph.aws4.productIcon;prIcon=mxgraph.aws4.s3;" parent="200" vertex="1">
                    <mxGeometry x="80" y="60.22107692307692" width="100" height="99.0096923076923" as="geometry"/>
                </mxCell>
                <mxCell id="12" value="OpenFoodFacts Proccessed Table" style="swimlane;fontStyle=0;childLayout=stackLayout;horizontal=1;startSize=30;horizontalStack=0;resizeParent=1;resizeParentMax=0;resizeLast=0;collapsible=1;marginBottom=0;whiteSpace=wrap;html=1;fillColor=#dae8fc;strokeColor=#6c8ebf;" parent="200" vertex="1">
                    <mxGeometry x="527" y="42.46153846153846" width="280" height="594.5454545454546" as="geometry"/>
                </mxCell>
                <mxCell id="13" value="id (PK)" style="text;strokeColor=none;fillColor=none;align=left;verticalAlign=middle;spacingLeft=4;spacingRight=4;overflow=hidden;points=[[0,0.5],[1,0.5]];portConstraint=eastwest;rotatable=0;whiteSpace=wrap;html=1;" parent="12" vertex="1">
                    <mxGeometry y="30" width="280" height="47.04545454545455" as="geometry"/>
                </mxCell>
                <mxCell id="14" value="nutriscore (JSON)" style="text;strokeColor=none;fillColor=none;align=left;verticalAlign=middle;spacingLeft=4;spacingRight=4;overflow=hidden;points=[[0,0.5],[1,0.5]];portConstraint=eastwest;rotatable=1;whiteSpace=wrap;html=1;movable=1;resizable=1;deletable=1;editable=1;locked=0;connectable=1;" parent="12" vertex="1">
                    <mxGeometry y="77.04545454545455" width="280" height="47.04545454545455" as="geometry"/>
                </mxCell>
                <mxCell id="16" value="nutriscore_data (JSON)" style="text;strokeColor=none;fillColor=none;align=left;verticalAlign=middle;spacingLeft=4;spacingRight=4;overflow=hidden;points=[[0,0.5],[1,0.5]];portConstraint=eastwest;rotatable=0;whiteSpace=wrap;html=1;" parent="12" vertex="1">
                    <mxGeometry y="124.0909090909091" width="280" height="47.04545454545455" as="geometry"/>
                </mxCell>
                <mxCell id="17" value="nutriscore_grade (String)" style="text;strokeColor=none;fillColor=none;align=left;verticalAlign=middle;spacingLeft=4;spacingRight=4;overflow=hidden;points=[[0,0.5],[1,0.5]];portConstraint=eastwest;rotatable=0;whiteSpace=wrap;html=1;" parent="12" vertex="1">
                    <mxGeometry y="171.13636363636363" width="280" height="47.04545454545455" as="geometry"/>
                </mxCell>
                <mxCell id="18" value="ecoscore_grade (String)" style="text;strokeColor=none;fillColor=none;align=left;verticalAlign=middle;spacingLeft=4;spacingRight=4;overflow=hidden;points=[[0,0.5],[1,0.5]];portConstraint=eastwest;rotatable=0;whiteSpace=wrap;html=1;" parent="12" vertex="1">
                    <mxGeometry y="218.1818181818182" width="280" height="47.04545454545455" as="geometry"/>
                </mxCell>
                <mxCell id="19" value="ecoscore_data (JSON)" style="text;strokeColor=none;fillColor=none;align=left;verticalAlign=middle;spacingLeft=4;spacingRight=4;overflow=hidden;points=[[0,0.5],[1,0.5]];portConstraint=eastwest;rotatable=0;whiteSpace=wrap;html=1;" parent="12" vertex="1">
                    <mxGeometry y="265.22727272727275" width="280" height="47.04545454545455" as="geometry"/>
                </mxCell>
                <mxCell id="20" value="nova_groups_tags (Array&amp;lt;String&amp;gt;)" style="text;strokeColor=none;fillColor=none;align=left;verticalAlign=middle;spacingLeft=4;spacingRight=4;overflow=hidden;points=[[0,0.5],[1,0.5]];portConstraint=eastwest;rotatable=0;whiteSpace=wrap;html=1;" parent="12" vertex="1">
                    <mxGeometry y="312.2727272727273" width="280" height="47.04545454545455" as="geometry"/>
                </mxCell>
                <mxCell id="21" value="brand_tags (Array&amp;lt;String&amp;gt;)" style="text;strokeColor=none;fillColor=none;align=left;verticalAlign=middle;spacingLeft=4;spacingRight=4;overflow=hidden;points=[[0,0.5],[1,0.5]];portConstraint=eastwest;rotatable=0;whiteSpace=wrap;html=1;" parent="12" vertex="1">
                    <mxGeometry y="359.31818181818187" width="280" height="47.04545454545455" as="geometry"/>
                </mxCell>
                <mxCell id="22" value="categories_hierarchy (Array&amp;lt;String&amp;gt;)" style="text;strokeColor=none;fillColor=none;align=left;verticalAlign=middle;spacingLeft=4;spacingRight=4;overflow=hidden;points=[[0,0.5],[1,0.5]];portConstraint=eastwest;rotatable=0;whiteSpace=wrap;html=1;" parent="12" vertex="1">
                    <mxGeometry y="406.36363636363643" width="280" height="47.04545454545455" as="geometry"/>
                </mxCell>
                <mxCell id="23" value="countries_hierarchy (Array&amp;lt;String&amp;gt;)" style="text;strokeColor=none;fillColor=none;align=left;verticalAlign=middle;spacingLeft=4;spacingRight=4;overflow=hidden;points=[[0,0.5],[1,0.5]];portConstraint=eastwest;rotatable=0;whiteSpace=wrap;html=1;" parent="12" vertex="1">
                    <mxGeometry y="453.409090909091" width="280" height="47.04545454545455" as="geometry"/>
                </mxCell>
                <mxCell id="24" value="image_url (String)" style="text;strokeColor=none;fillColor=none;align=left;verticalAlign=middle;spacingLeft=4;spacingRight=4;overflow=hidden;points=[[0,0.5],[1,0.5]];portConstraint=eastwest;rotatable=0;whiteSpace=wrap;html=1;" parent="12" vertex="1">
                    <mxGeometry y="500.45454545454555" width="280" height="47.04545454545455" as="geometry"/>
                </mxCell>
                <mxCell id="25" value="data_sources (String)" style="text;strokeColor=none;fillColor=none;align=left;verticalAlign=middle;spacingLeft=4;spacingRight=4;overflow=hidden;points=[[0,0.5],[1,0.5]];portConstraint=eastwest;rotatable=0;whiteSpace=wrap;html=1;" parent="12" vertex="1">
                    <mxGeometry y="547.5000000000001" width="280" height="47.04545454545455" as="geometry"/>
                </mxCell>
                <mxCell id="_2Xd_gbtaXNUsb9bYV4X-213" value="&lt;span style=&quot;color: rgb(35, 47, 62); font-size: 10px; font-weight: 700;&quot;&gt;S3 bucket:&lt;/span&gt;&lt;br style=&quot;font-size: 10px; font-weight: 700;&quot;&gt;&lt;span style=&quot;color: rgb(35, 47, 62); font-size: 10px; font-weight: 700;&quot;&gt;&quot;thicc-check-open-food--data&quot;&lt;/span&gt;&lt;br style=&quot;font-size: 10px; font-weight: 700;&quot;&gt;&lt;span style=&quot;color: rgb(35, 47, 62); font-size: 10px; font-weight: 700;&quot;&gt;S3 Key: &quot;zipped-openfoodfacts-data&quot;&lt;/span&gt;" style="text;strokeColor=none;align=center;fillColor=none;html=1;verticalAlign=middle;whiteSpace=wrap;rounded=0;" parent="200" vertex="1">
                    <mxGeometry x="206.86" y="60.22107692307692" width="120" height="109.62507692307692" as="geometry"/>
                </mxCell>
                <mxCell id="_2Xd_gbtaXNUsb9bYV4X-225" style="edgeStyle=none;html=1;" parent="200" source="_2Xd_gbtaXNUsb9bYV4X-217" target="_2Xd_gbtaXNUsb9bYV4X-224" edge="1">
                    <mxGeometry relative="1" as="geometry"/>
                </mxCell>
                <mxCell id="_2Xd_gbtaXNUsb9bYV4X-217" value="" style="outlineConnect=0;dashed=0;verticalLabelPosition=bottom;verticalAlign=top;align=center;html=1;shape=mxgraph.aws3.lambda_function;fillColor=#5294CF;gradientColor=none;" parent="200" vertex="1">
                    <mxGeometry x="90.71000000000001" y="244.15384615384616" width="78.57" height="84.92307692307692" as="geometry"/>
                </mxCell>
                <mxCell id="_2Xd_gbtaXNUsb9bYV4X-222" value="&lt;font color=&quot;#232f3e&quot;&gt;&lt;span style=&quot;font-size: 10px;&quot;&gt;&lt;b&gt;Lambda function:&lt;/b&gt;&lt;/span&gt;&lt;/font&gt;&lt;div&gt;&lt;span style=&quot;font-size: 10px;&quot;&gt;&lt;b&gt;&quot;OpenFoodFactsProcessingFunction&quot;&lt;/b&gt;&lt;/span&gt;&lt;/div&gt;&lt;div&gt;&lt;span style=&quot;font-size: 10px;&quot;&gt;&lt;b&gt;&lt;br&gt;&lt;/b&gt;&lt;/span&gt;&lt;/div&gt;" style="text;strokeColor=none;align=center;fillColor=none;html=1;verticalAlign=middle;whiteSpace=wrap;rounded=0;" parent="200" vertex="1">
                    <mxGeometry x="180" y="231.79753846153847" width="180" height="109.62507692307692" as="geometry"/>
                </mxCell>
                <mxCell id="_2Xd_gbtaXNUsb9bYV4X-223" value="&lt;span style=&quot;color: rgb(35, 47, 62); font-size: 10px; font-weight: 700;&quot;&gt;S3 bucket:&lt;/span&gt;&lt;br style=&quot;font-size: 10px; font-weight: 700;&quot;&gt;&lt;span style=&quot;color: rgb(35, 47, 62); font-size: 10px; font-weight: 700;&quot;&gt;&quot;thicc-check-processed-data&quot;&lt;/span&gt;&lt;br style=&quot;font-size: 10px; font-weight: 700;&quot;&gt;&lt;span style=&quot;color: rgb(35, 47, 62); font-size: 10px; font-weight: 700;&quot;&gt;S3 Key: &quot;openfoodfacts-processed-output&quot;&lt;/span&gt;" style="text;strokeColor=none;align=center;fillColor=none;html=1;verticalAlign=middle;whiteSpace=wrap;rounded=0;" parent="200" vertex="1">
                    <mxGeometry x="206.86" y="382.15384615384613" width="120" height="109.62507692307692" as="geometry"/>
                </mxCell>
                <mxCell id="203" style="edgeStyle=none;html=1;" parent="200" source="_2Xd_gbtaXNUsb9bYV4X-224" target="202" edge="1">
                    <mxGeometry relative="1" as="geometry"/>
                </mxCell>
                <mxCell id="_2Xd_gbtaXNUsb9bYV4X-224" value="" style="sketch=0;outlineConnect=0;fontColor=#232F3E;gradientColor=none;strokeColor=#ffffff;fillColor=#232F3E;dashed=0;verticalLabelPosition=middle;verticalAlign=bottom;align=center;html=1;whiteSpace=wrap;fontSize=10;fontStyle=1;spacing=3;shape=mxgraph.aws4.productIcon;prIcon=mxgraph.aws4.s3;" parent="200" vertex="1">
                    <mxGeometry x="80" y="392.7692307692308" width="100" height="99.0096923076923" as="geometry"/>
                </mxCell>
                <mxCell id="204" style="edgeStyle=none;html=1;" parent="200" source="202" target="12" edge="1">
                    <mxGeometry relative="1" as="geometry"/>
                </mxCell>
                <mxCell id="202" value="" style="sketch=0;outlineConnect=0;fontColor=#232F3E;gradientColor=none;strokeColor=#ffffff;fillColor=#232F3E;dashed=0;verticalLabelPosition=middle;verticalAlign=bottom;align=center;html=1;whiteSpace=wrap;fontSize=10;fontStyle=1;spacing=3;shape=mxgraph.aws4.productIcon;prIcon=mxgraph.aws4.glue;" parent="200" vertex="1">
                    <mxGeometry x="90" y="552" width="80" height="74.3076923076923" as="geometry"/>
                </mxCell>
                <mxCell id="205" value="&lt;font color=&quot;#232f3e&quot;&gt;&lt;span style=&quot;font-size: 10px;&quot;&gt;&lt;b&gt;Glue Table:&lt;/b&gt;&lt;/span&gt;&lt;/font&gt;&lt;div&gt;&lt;font color=&quot;#232f3e&quot;&gt;&lt;span style=&quot;font-size: 10px;&quot;&gt;&lt;b&gt;&quot;unzipped_openfoodfacts_data&quot;&lt;/b&gt;&lt;/span&gt;&lt;/font&gt;&lt;/div&gt;&lt;div&gt;&lt;font color=&quot;#232f3e&quot;&gt;&lt;span style=&quot;font-size: 10px;&quot;&gt;&lt;b&gt;Database:&lt;/b&gt;&lt;/span&gt;&lt;/font&gt;&lt;/div&gt;&lt;div&gt;&lt;font color=&quot;#232f3e&quot;&gt;&lt;span style=&quot;font-size: 10px;&quot;&gt;&lt;b&gt;&quot;open-food-facts-db&quot;&lt;/b&gt;&lt;/span&gt;&lt;/font&gt;&lt;/div&gt;&lt;div&gt;&lt;font color=&quot;#232f3e&quot;&gt;&lt;span style=&quot;font-size: 10px;&quot;&gt;&lt;b&gt;&lt;br&gt;&lt;/b&gt;&lt;/span&gt;&lt;/font&gt;&lt;/div&gt;" style="text;strokeColor=none;align=center;fillColor=none;html=1;verticalAlign=middle;whiteSpace=wrap;rounded=0;" parent="200" vertex="1">
                    <mxGeometry x="210" y="552.0038461538462" width="120" height="109.62507692307692" as="geometry"/>
                </mxCell>
                <mxCell id="_2Xd_gbtaXNUsb9bYV4X-208" value="&lt;font style=&quot;font-size: 18px;&quot;&gt;AWS Data Source Infrastructure&lt;/font&gt;" style="text;html=1;align=center;verticalAlign=middle;resizable=0;points=[];autosize=1;strokeColor=none;fillColor=none;fontStyle=5" parent="1" vertex="1">
                    <mxGeometry x="-80" y="330" width="280" height="40" as="geometry"/>
                </mxCell>
            </root>
        </mxGraphModel>
    </diagram>
</mxfile>